<svg width="256" height="256" viewBox="0 0 256 256" fill="none" xmlns="http://www.w3.org/2000/svg">
    <rect width="256" height="256" rx="30" fill="#19A58E"/>
    <path fill-rule="evenodd" clip-rule="evenodd" d="M178.796 139.545C176.354 146.164 171.619 161.932 169.006 169.887C166.394 177.843 163.512 183.802 163.12 187.281C162.729 190.76 165.702 191.001 166.657 190.762C167.612 190.523 168.929 190.342 172.423 184.587C175.918 178.832 183.793 164.953 187.626 156.231C191.459 147.509 196.157 136.354 195.424 132.255C194.689 128.156 186.431 128.961 183.66 130.176C180.889 131.391 181.238 132.927 178.796 139.545Z" fill="white"/>
    <path fill-rule="evenodd" clip-rule="evenodd" d="M174.263 119.631C175.417 122.921 180.931 122.193 181.518 118.757C182.018 115.827 182.28 112.502 181.991 109.274C181.276 101.285 177.577 88.2822 174.468 79.6387C171.359 70.9951 167.725 62.2194 163.336 57.412C158.948 52.6048 153.267 51.6217 148.136 50.7945C143.005 49.9673 137.145 50.9984 132.552 52.449C127.958 53.8996 124.261 56.0695 120.576 59.4982C116.891 62.9267 112.958 67.7542 110.442 73.021C107.926 78.2877 106.373 85.4647 105.478 91.0992C104.582 96.7338 104.548 101.761 105.068 106.828C105.588 111.895 106.578 116.634 108.599 121.502C110.621 126.369 114.076 131.955 117.198 136.032C120.32 140.108 125.233 144.016 127.331 145.958C129.43 147.9 130.633 148.02 129.788 147.684C128.944 147.349 124.964 145.107 122.265 143.944C119.565 142.781 116.575 141.546 113.59 140.707C110.604 139.868 107.329 139.336 104.352 138.909C101.375 138.481 98.385 138.034 95.7277 138.142C93.0708 138.25 90.8061 138.925 88.4091 139.556C86.0121 140.188 83.8243 140.743 81.3463 141.93C78.8683 143.117 75.9853 144.627 73.5413 146.677C71.0976 148.727 68.5812 151.197 66.6834 154.23C64.7853 157.263 63.2029 160.5 62.154 164.875C61.1047 169.251 59.9658 175.821 60.3881 180.484C60.8105 185.148 62.0259 189.404 64.6873 192.856C67.3485 196.309 71.9291 199.402 76.3561 201.2C80.7834 202.999 84.6731 203.67 91.2495 203.646C97.8263 203.622 107.729 202.567 115.816 201.056C123.902 199.546 133.04 196.85 139.768 194.583C146.496 192.316 153.409 188.978 156.186 187.455C158.963 185.931 157.102 185.7 156.43 185.442C155.757 185.182 154.714 184.935 152.149 185.902C149.585 186.868 147.929 189.568 141.043 191.242C134.156 192.916 119.642 195.463 110.831 195.947C102.02 196.43 94.0012 195.728 88.1789 194.142C82.3563 192.556 78.4162 189.707 75.8957 186.431C73.3751 183.154 72.5171 178.84 73.0546 174.485C73.5919 170.129 75.8063 163.9 79.1203 160.296C82.4343 156.693 87.9996 154.254 92.9385 152.863C97.8772 151.472 102.902 151.702 108.753 151.951C114.605 152.2 123.4 153.464 128.048 154.356C132.695 155.248 132.758 155.781 136.639 157.302C140.52 158.822 148.273 162.121 151.333 163.479C154.393 164.838 153.823 165.31 154.999 165.455C156.176 165.6 157.602 165.008 158.39 164.348C159.179 163.688 160.209 163.121 159.728 161.495C159.247 159.868 158.125 157.213 155.506 154.59C152.887 151.966 147.861 149.084 144.012 145.751C140.163 142.418 135.755 138.531 132.412 134.593C129.07 130.655 126.256 127.168 123.957 122.121C121.657 117.075 118.986 110.599 118.615 104.315C118.245 98.0302 118.915 89.2947 121.732 84.4147C124.55 79.5347 130.433 76.5263 135.52 75.0351C140.607 73.5436 147.837 73.3647 152.256 75.4665C156.674 77.5684 158.986 82.8754 162.031 87.6467C165.077 92.418 168.488 98.7638 170.527 104.095C172.566 109.425 172.891 115.719 174.263 119.631Z" fill="white"/>
    <path fill-rule="evenodd" clip-rule="evenodd" d="M142.68 147.361C139.418 146.055 136.626 145.083 133.337 144.094C130.048 143.105 126.276 142.248 122.946 141.427C119.616 140.607 116.756 139.78 113.357 139.171C109.958 138.563 106.175 137.925 102.552 137.777C98.9287 137.629 95.2577 137.611 91.6175 138.282C87.9774 138.954 84.2143 140.061 80.7106 141.807C77.2069 143.554 73.4563 145.959 70.5956 148.761C67.7346 151.562 65.2614 155.035 63.5456 158.616C61.8301 162.196 60.7826 166.252 60.3016 170.245C59.8206 174.237 59.8972 178.801 60.6593 182.569C61.4212 186.338 62.2301 189.751 64.874 192.856C67.5175 195.961 72.1027 199.402 76.5216 201.2C80.9405 202.998 84.8231 203.67 91.3876 203.646C97.9521 203.622 107.837 202.567 115.909 201.056C123.981 199.545 133.349 196.966 139.817 194.582C146.285 192.199 152.154 188.47 154.717 186.756C157.28 185.041 155.619 184.53 155.196 184.295C154.772 184.059 154.734 184.285 152.176 185.342C149.618 186.398 146.533 188.845 139.849 190.636C133.166 192.427 120.712 195.548 112.074 196.086C103.437 196.624 94.0267 195.471 88.0248 193.862C82.0226 192.253 78.6151 189.807 76.0617 186.43C73.5084 183.053 72.2361 177.702 72.7052 173.599C73.174 169.495 75.7699 165.056 78.876 161.807C81.9818 158.558 87.0455 155.744 91.34 154.106C95.6344 152.468 99.9697 152.122 104.642 151.98C109.314 151.837 114.625 152.519 119.374 153.251C124.123 153.984 128.546 154.888 133.137 156.376C137.729 157.865 143.198 160.391 146.922 162.181C150.646 163.969 153.392 166.692 155.481 167.111C157.57 167.529 158.72 166.158 159.456 164.692C160.192 163.225 160.846 160.085 159.896 158.314C158.504 155.534 155.775 153.757 152.906 151.932C150.036 150.106 145.941 148.667 142.68 147.361Z" fill="white"/>
    <path fill-rule="evenodd" clip-rule="evenodd" d="M157.893 82.0331C160.328 84.8523 162.41 88.5963 164.294 92.425C166.178 96.2539 167.979 100.919 169.195 105.006C170.411 109.092 170.855 112.912 171.589 116.944C172.324 120.977 172.209 127.388 173.601 129.2C174.992 131.012 178.333 130.046 179.94 127.814C181.547 125.582 182.986 121.027 183.243 115.809C183.5 110.591 182.933 103.499 181.482 96.5065C180.031 89.5141 177.494 80.3264 174.537 73.8543C171.58 67.3822 167.861 61.5064 163.741 57.6736C159.621 53.8406 155.031 51.7284 149.818 50.8567C144.606 49.9849 137.628 50.7865 132.466 52.4428C127.305 54.099 122.813 56.7016 118.848 60.7941C114.883 64.8868 111.013 71.3419 108.675 76.9991C106.337 82.656 105.368 89.1373 104.822 94.7367C104.275 100.336 105.409 108.971 105.712 110.694C106.014 112.416 105.884 107.42 106.637 105.07C107.39 102.72 108.388 99.6511 110.232 96.594C112.075 93.5369 115.795 88.7508 117.699 86.7278C119.405 85.0779 122.116 82.1443 125.965 79.4679C129.195 77.6117 131.923 75.7334 136.832 74.7254C141.741 73.7174 146.171 74.2922 149.681 75.5101C153.191 76.7283 155.458 79.2139 157.893 82.0331Z" fill="white"/>
    <path fill-rule="evenodd" clip-rule="evenodd" d="M79.105 161.266C80.1656 159.967 83.2773 157.882 81.6684 158.944C80.0595 160.005 72.4809 165.156 69.4513 167.634C66.4218 170.112 64.6166 171.873 63.4914 173.809C62.5455 175.009 60.9973 177.537 61.2115 180.73C61.4259 183.923 62.2405 189.359 64.7774 192.967C67.3144 196.575 71.8787 200.256 76.4334 202.378C80.9882 204.5 87.6028 206.313 95.4569 206.816C103.311 207.319 115.24 206.77 123.558 205.396C131.875 204.022 139.715 201.126 145.361 198.571C151.007 196.016 155.385 192.684 157.431 190.065C159.478 187.446 159.949 183.147 157.638 182.858C155.326 182.568 149.737 186.125 144.819 188.065C139.902 190.007 129.969 193.066 121.578 194.224C113.186 195.382 101.823 196.041 94.4681 195.012C87.1128 193.983 81.0335 191.272 77.4455 188.049C73.8575 184.825 72.6533 178.686 72.9407 175.671C72.9214 172.979 74.2777 169.136 75.3049 166.735C76.3325 164.334 78.0444 162.564 79.105 161.266Z" fill="white"/>
</svg>
